# xmcd
#
# Track frame offsets:
# 150
# 11899
# 25562
# 45166
# 58301
# 73938
# 88550
# 106454
# 121672
# 134682
# 146377
# 161825
#
# Disc length: 2359 seconds
#
#
# Revision: 1
# Processed by: cddbd v1.5.2PL0 Copyright (c) Steve Scherf et al.
# Submitted via: FreeRIP 2.951 
#
DISCID=a309350c
DTITLE=Lasse Stefanz  - Upp till dans 14 (Vol 2)
DYEAR=2009
DGENRE=Dansband
TTITLE0=Oh Julie
TTITLE1=Till Österlen
TTITLE2=Innan Livet Försvinner
TTITLE3=Jiggen
TTITLE4=Den Lilla Klockan
TTITLE5=På Egna Vägar
TTITLE6=Främling
TTITLE7=Ett Äventyr
TTITLE8=Farväl Goodbye
TTITLE9=Mot Lugnare Vatten
TTITLE10=Ett Litet Rött Paket
TTITLE11=Peppelinos Bar
EXTD=
EXTT0=
EXTT1=
EXTT2=
EXTT3=
EXTT4=
EXTT5=
EXTT6=
EXTT7=
EXTT8=
EXTT9=
EXTT10=
EXTT11=
PLAYORDER=
